<svg viewBox="0 0 20 20" xmlns="http://www.w3.org/2000/svg"><path d="m16.88 20h-13.75a3.13 3.13 0 0 1 -3.13-3.12v-8.44a3.13 3.13 0 0 1 3.13-3.13h3.75a.79.79 0 0 1 0 1.57h-3.75a1.56 1.56 0 0 0 -1.57 1.56v8.44a1.56 1.56 0 0 0 1.57 1.56h13.75a1.56 1.56 0 0 0 1.56-1.56v-4.54a.78.78 0 1 1 1.56 0v4.54a3.12 3.12 0 0 1 -3.12 3.12zm3.12-11.56a3.13 3.13 0 0 0 -3.12-3.13h-3.75a.79.79 0 1 0 0 1.57h3.75a1.56 1.56 0 0 1 1.56 1.56.78.78 0 0 0 1.56 0zm-3.79 3.47a.79.79 0 1 0 .78.79.78.78 0 0 0 -.78-.79zm-12.42 1.57a.79.79 0 1 0 -.79-.78.78.78 0 0 0 .79.78zm9.54-10.08a.78.78 0 0 0 0-1.1l-1.63-1.61a2.34 2.34 0 0 0 -3.32 0l-1.62 1.61a.78.78 0 0 0 1.09 1.11l1.37-1.35v7.16a.78.78 0 0 0 1.56 0v-7.22l1.44 1.43a.79.79 0 0 0 1.11-.03zm-1.41 7.77a2.8 2.8 0 0 1 .46 1.53 2.54 2.54 0 0 1 -2.38 2.66 2.54 2.54 0 0 1 -2.38-2.66 2.74 2.74 0 0 1 .38-1.53.79.79 0 0 0 -.23-1.08.77.77 0 0 0 -1.08.23 4.25 4.25 0 0 0 -.68 2.38 4.09 4.09 0 0 0 4 4.22 4.09 4.09 0 0 0 3.99-4.22 4.34 4.34 0 0 0 -.72-2.38.77.77 0 0 0 -.65-.36.72.72 0 0 0 -.42.13.78.78 0 0 0 -.29 1.08z" fill="#fff"/></svg>