<svg viewBox="0 0 20 20" xmlns="http://www.w3.org/2000/svg"><path d="m20 3.13v4.53a.78.78 0 1 1 -1.56 0v-4.53a1.56 1.56 0 0 0 -1.56-1.57h-13.75a1.57 1.57 0 0 0 -1.57 1.57v8.43a1.57 1.57 0 0 0 1.57 1.57h3.75a.78.78 0 1 1 0 1.56h-3.75a3.13 3.13 0 0 1 -3.13-3.13v-8.43a3.13 3.13 0 0 1 3.13-3.13h13.75a3.13 3.13 0 0 1 3.12 3.13zm-.78 7.65a.78.78 0 0 0 -.78.78 1.57 1.57 0 0 1 -1.56 1.57h-3.75a.78.78 0 1 0 0 1.56h3.75a3.13 3.13 0 0 0 3.12-3.13.78.78 0 0 0 -.78-.78zm-2.22-3.48a.78.78 0 1 0 -.78.79.78.78 0 0 0 .78-.79zm-14 0a.78.78 0 1 0 .78-.78.78.78 0 0 0 -.78.78zm9.21 9.29-1.43 1.41v-7.22a.78.78 0 0 0 -1.56 0v7.16l-1.37-1.35a.78.78 0 0 0 -1.09 1.11l1.62 1.61a2.34 2.34 0 0 0 3.32 0l1.62-1.61a.78.78 0 0 0 0-1.1.79.79 0 0 0 -1.1-.01zm-.06-6.68a.72.72 0 0 0 .42.13.77.77 0 0 0 .65-.36 4.34 4.34 0 0 0 .78-2.38 4.09 4.09 0 0 0 -4-4.22 4.09 4.09 0 0 0 -3.95 4.22 4.25 4.25 0 0 0 .68 2.38.77.77 0 0 0 1.08.23.79.79 0 0 0 .19-1.08 2.74 2.74 0 0 1 -.38-1.53 2.54 2.54 0 0 1 2.38-2.66 2.54 2.54 0 0 1 2.38 2.66 2.8 2.8 0 0 1 -.46 1.53.78.78 0 0 0 .24 1.08z" fill="#fff"/></svg>